<?xml version="1.0" standalone="no"?>
<!DOCTYPE svg PUBLIC "-//W3C//DTD SVG 20010904//EN"
 "http://www.w3.org/TR/2001/REC-SVG-20010904/DTD/svg10.dtd">
<svg version="1.0" xmlns="http://www.w3.org/2000/svg"
 width="200.000000pt" height="200.000000pt" viewBox="0 0 200.000000 200.000000"
 preserveAspectRatio="xMidYMid meet">

<g transform="translate(0.000000,200.000000) scale(0.100000,-0.100000)"
fill="#000000" stroke="none">
<path d="M515 1984 c-136 -29 -277 -113 -364 -217 -60 -71 -118 -195 -136
-290 -22 -116 -22 -845 1 -955 39 -197 163 -361 340 -450 127 -64 137 -65 608
-69 367 -4 440 -2 510 12 263 53 462 250 511 508 22 116 22 845 0 955 -40 196
-160 357 -336 447 -132 68 -137 68 -624 71 -361 3 -453 0 -510 -12z m103 -343
c67 -34 102 -93 102 -171 0 -70 -29 -124 -87 -161 -128 -80 -293 9 -293 158 0
114 76 192 188 193 33 0 67 -7 90 -19z m464 -128 c22 -20 23 -61 1 -85 -14
-16 -33 -18 -144 -18 -121 0 -129 1 -143 22 -9 12 -16 29 -16 38 0 9 7 26 16
38 14 21 22 22 141 22 104 0 130 -3 145 -17z m348 4 c19 -7 41 -24 49 -39 14
-25 14 -29 -5 -55 -24 -31 -16 -30 -182 -16 -76 7 -96 12 -108 28 -15 21 -11
59 8 82 14 17 190 16 238 0z m157 -151 c27 -23 28 -28 28 -119 0 -81 -3 -100
-21 -124 -26 -34 -68 -42 -96 -16 -17 15 -19 25 -13 63 10 65 10 90 2 133 -7
32 -4 40 17 62 31 31 47 31 83 1z m-127 -286 c39 -39 20 -93 -38 -110 -20 -5
-85 -10 -144 -10 -118 0 -138 9 -138 60 0 49 21 60 123 61 51 1 103 5 117 9
41 13 59 11 80 -10z m-480 -32 c13 -25 13 -31 0 -55 -15 -27 -19 -28 -120 -34
-58 -4 -123 -10 -145 -14 -33 -6 -43 -3 -59 14 -21 23 -24 67 -7 84 26 27 79
36 196 34 119 -2 119 -2 135 -29z m-364 -139 c16 -18 17 -26 6 -78 -10 -47
-10 -69 0 -106 14 -51 7 -72 -32 -92 -55 -28 -92 23 -98 132 -7 140 59 216
124 144z m1057 -218 c58 -37 87 -91 87 -161 0 -113 -78 -190 -193 -190 -149 0
-238 165 -158 293 58 90 173 115 264 58z m-833 -89 c79 -7 85 -9 100 -35 13
-24 13 -30 0 -55 -15 -26 -19 -27 -105 -30 -93 -3 -166 10 -186 34 -17 21 -14
62 7 85 16 17 26 20 59 14 22 -4 78 -10 125 -13z m480 -35 c13 -24 13 -30 0
-55 l-16 -27 -129 -3 c-123 -3 -131 -2 -147 19 -22 26 -23 48 -2 77 15 22 20
22 147 20 l131 -3 16 -28z"/>
</g>
</svg>
